<?xml version="1.0" encoding="UTF-8" standalone="no"?>
<!-- Created with Inkscape (http://www.inkscape.org/) -->

<svg
   xmlns:dc="http://purl.org/dc/elements/1.1/"
   xmlns:cc="http://creativecommons.org/ns#"
   xmlns:rdf="http://www.w3.org/1999/02/22-rdf-syntax-ns#"
   xmlns:svg="http://www.w3.org/2000/svg"
   xmlns="http://www.w3.org/2000/svg"
   xmlns:sodipodi="http://sodipodi.sourceforge.net/DTD/sodipodi-0.dtd"
   xmlns:inkscape="http://www.inkscape.org/namespaces/inkscape"
   width="15cm"
   height="15cm"
   viewBox="0 0 150 150"
   version="1.1"
   id="svg8"
   inkscape:version="0.92.3 (2405546, 2018-03-11)"
   sodipodi:docname="icon.svg"
   inkscape:export-filename="/home/aaron/LaLaLab/lalalab-apps/shepardrhythm/icons/icon.png"
   inkscape:export-xdpi="96"
   inkscape:export-ydpi="96">
  <defs
     id="defs2" />
  <sodipodi:namedview
     id="base"
     pagecolor="#ffffff"
     bordercolor="#666666"
     borderopacity="1.0"
     inkscape:pageopacity="0.0"
     inkscape:pageshadow="2"
     inkscape:zoom="0.98994949"
     inkscape:cx="229.39656"
     inkscape:cy="350.81638"
     inkscape:document-units="mm"
     inkscape:current-layer="layer1"
     showgrid="false"
     units="cm"
     inkscape:window-width="1853"
     inkscape:window-height="1025"
     inkscape:window-x="67"
     inkscape:window-y="27"
     inkscape:window-maximized="1"
     inkscape:pagecheckerboard="true" />
  <metadata
     id="metadata5">
    <rdf:RDF>
      <cc:Work
         rdf:about="">
        <dc:format>image/svg+xml</dc:format>
        <dc:type
           rdf:resource="http://purl.org/dc/dcmitype/StillImage" />
        <dc:title></dc:title>
      </cc:Work>
    </rdf:RDF>
  </metadata>
  <g
     inkscape:label="Layer 1"
     inkscape:groupmode="layer"
     id="layer1"
     transform="translate(0,-147.00002)">
    <g
       id="g12994"
       transform="matrix(0.89020281,0,0,0.89020281,-375.33278,151.91113)"
       style="fill:#ffffff;fill-opacity:1;stroke-width:0.99977218;stroke-miterlimit:4;stroke-dasharray:none">
      <path
         id="path12112"
         style="opacity:1;fill:#ffffff;fill-opacity:1;fill-rule:evenodd;stroke:none;stroke-width:0.99977218;stroke-miterlimit:4;stroke-dashoffset:0;stroke-opacity:1;stroke-dasharray:none"
         d="m 431.56955,65.847427 c -3.39584,1.81997 -5.20528,5.11455 -4.09222,7.59296 1.18726,2.64364 5.26701,3.38972 9.10658,1.66537 3.83956,-1.72436 5.99216,-5.2694 4.8049,-7.91303 -1.18727,-2.64364 -5.26701,-3.38972 -9.10658,-1.66537 -0.23997,0.10777 -0.48628,0.19874 -0.71268,0.32007 z"
         inkscape:connector-curvature="0" />
      <path
         id="path12114"
         style="fill:#ffffff;fill-opacity:1;fill-rule:evenodd;stroke:#ffffff;stroke-width:0.99977218;stroke-linecap:butt;stroke-linejoin:miter;stroke-miterlimit:4;stroke-dasharray:none;stroke-opacity:1"
         d="M 441.18705,68.62194 V 35.03437"
         inkscape:connector-curvature="0" />
      <path
         id="path12116"
         style="fill:#ffffff;fill-opacity:1;fill-rule:evenodd;stroke:none;stroke-width:0.99977218;stroke-linecap:butt;stroke-linejoin:miter;stroke-opacity:1;stroke-miterlimit:4;stroke-dasharray:none"
         d="m 441.1824,35.99421 c -0.5625,6.3125 4.84255,8.57374 7.5,11.5 2.52596,2.78147 3.44867,5.98972 3.34548,8.9956 -0.0275,0.80257 -0.24543,4.28011 -2.61445,7.76672 3.16792,-8.74711 0.21847,-12.25806 -2.66296,-15.05158 -3.48994,-3.38346 -6.08612,-6.57218 -5.56807,-13.21074 z"
         inkscape:connector-curvature="0" />
    </g>
    <g
       id="g11025"
       transform="matrix(0.89020281,0,0,0.89020281,-261.48519,-43.676263)"
       style="fill:#ffffff;fill-opacity:1;stroke:#ffffff;stroke-width:0.99977219;stroke-miterlimit:4;stroke-dasharray:none;stroke-opacity:1">
      <path
         id="path11017"
         style="opacity:1;fill:#ffffff;fill-opacity:1;fill-rule:evenodd;stroke:#ffffff;stroke-width:0.99977219;stroke-miterlimit:4;stroke-dasharray:none;stroke-dashoffset:0;stroke-opacity:1"
         d="m 303.13715,299.65106 c -3.39584,1.81997 -5.20528,5.11455 -4.09222,7.59296 1.18726,2.64364 5.26701,3.38972 9.10658,1.66537 3.83956,-1.72436 5.99216,-5.2694 4.8049,-7.91303 -1.18727,-2.64364 -5.26701,-3.38972 -9.10658,-1.66537 -0.23997,0.10777 -0.48628,0.19874 -0.71268,0.32007 z"
         inkscape:connector-curvature="0" />
      <path
         id="path11019"
         style="fill:#ffffff;fill-opacity:1;fill-rule:evenodd;stroke:#ffffff;stroke-width:0.99977219;stroke-linecap:butt;stroke-linejoin:miter;stroke-miterlimit:4;stroke-dasharray:none;stroke-opacity:1"
         d="m 299.50465,305.98445 v 33.58757"
         inkscape:connector-curvature="0" />
    </g>
    <g
       style="opacity:0.853;fill:#ffffff;fill-opacity:1;stroke-width:0.99977218;stroke-miterlimit:4;stroke-dasharray:none"
       transform="matrix(0.89020281,0,0,0.89020281,-304.27099,151.91113)"
       id="g4794">
      <path
         inkscape:connector-curvature="0"
         d="m 431.56955,65.847427 c -3.39584,1.81997 -5.20528,5.11455 -4.09222,7.59296 1.18726,2.64364 5.26701,3.38972 9.10658,1.66537 3.83956,-1.72436 5.99216,-5.2694 4.8049,-7.91303 -1.18727,-2.64364 -5.26701,-3.38972 -9.10658,-1.66537 -0.23997,0.10777 -0.48628,0.19874 -0.71268,0.32007 z"
         style="opacity:1;fill:#ffffff;fill-opacity:1;fill-rule:evenodd;stroke:none;stroke-width:0.99977218;stroke-miterlimit:4;stroke-dashoffset:0;stroke-opacity:1;stroke-dasharray:none"
         id="path4788" />
      <path
         inkscape:connector-curvature="0"
         d="M 441.18705,68.62194 V 35.03437"
         style="fill:#ffffff;fill-opacity:1;fill-rule:evenodd;stroke:#ffffff;stroke-width:0.99977218;stroke-linecap:butt;stroke-linejoin:miter;stroke-miterlimit:4;stroke-dasharray:none;stroke-opacity:1"
         id="path4790" />
      <path
         inkscape:connector-curvature="0"
         d="m 441.1824,35.99421 c -0.5625,6.3125 4.84255,8.57374 7.5,11.5 2.52596,2.78147 3.44867,5.98972 3.34548,8.9956 -0.0275,0.80257 -0.24543,4.28011 -2.61445,7.76672 3.16792,-8.74711 0.21847,-12.25806 -2.66296,-15.05158 -3.48994,-3.38346 -6.08612,-6.57218 -5.56807,-13.21074 z"
         style="fill:#ffffff;fill-opacity:1;fill-rule:evenodd;stroke:none;stroke-width:0.99977218;stroke-linecap:butt;stroke-linejoin:miter;stroke-opacity:1;stroke-miterlimit:4;stroke-dasharray:none"
         id="path4792" />
    </g>
    <g
       style="fill:#ffffff;fill-opacity:1;stroke:#ffffff;stroke-width:0.99977219;stroke-miterlimit:4;stroke-dasharray:none;stroke-opacity:1"
       transform="matrix(0.89020281,0,0,0.89020281,-190.42341,-43.676263)"
       id="g4800">
      <path
         inkscape:connector-curvature="0"
         d="m 303.13715,299.65106 c -3.39584,1.81997 -5.20528,5.11455 -4.09222,7.59296 1.18726,2.64364 5.26701,3.38972 9.10658,1.66537 3.83956,-1.72436 5.99216,-5.2694 4.8049,-7.91303 -1.18727,-2.64364 -5.26701,-3.38972 -9.10658,-1.66537 -0.23997,0.10777 -0.48628,0.19874 -0.71268,0.32007 z"
         style="opacity:1;fill:#ffffff;fill-opacity:1;fill-rule:evenodd;stroke:#ffffff;stroke-width:0.99977219;stroke-miterlimit:4;stroke-dasharray:none;stroke-dashoffset:0;stroke-opacity:1"
         id="path4796" />
      <path
         inkscape:connector-curvature="0"
         d="m 299.50465,305.98445 v 33.58757"
         style="fill:#ffffff;fill-opacity:1;fill-rule:evenodd;stroke:#ffffff;stroke-width:0.99977219;stroke-linecap:butt;stroke-linejoin:miter;stroke-miterlimit:4;stroke-dasharray:none;stroke-opacity:1"
         id="path4798" />
    </g>
    <g
       id="g4808"
       transform="matrix(0.89020281,0,0,0.89020281,-270.71402,151.91113)"
       style="opacity:0.49500002;fill:#ffffff;fill-opacity:1;stroke-width:0.99977218;stroke-miterlimit:4;stroke-dasharray:none">
      <path
         id="path4802"
         style="opacity:1;fill:#ffffff;fill-opacity:1;fill-rule:evenodd;stroke:none;stroke-width:0.99977218;stroke-miterlimit:4;stroke-dashoffset:0;stroke-opacity:1;stroke-dasharray:none"
         d="m 431.56955,65.847427 c -3.39584,1.81997 -5.20528,5.11455 -4.09222,7.59296 1.18726,2.64364 5.26701,3.38972 9.10658,1.66537 3.83956,-1.72436 5.99216,-5.2694 4.8049,-7.91303 -1.18727,-2.64364 -5.26701,-3.38972 -9.10658,-1.66537 -0.23997,0.10777 -0.48628,0.19874 -0.71268,0.32007 z"
         inkscape:connector-curvature="0" />
      <path
         id="path4804"
         style="fill:#ffffff;fill-opacity:1;fill-rule:evenodd;stroke:#ffffff;stroke-width:0.99977218;stroke-linecap:butt;stroke-linejoin:miter;stroke-miterlimit:4;stroke-dasharray:none;stroke-opacity:1"
         d="M 441.18705,68.62194 V 35.03437"
         inkscape:connector-curvature="0" />
      <path
         id="path4806"
         style="fill:#ffffff;fill-opacity:1;fill-rule:evenodd;stroke:none;stroke-width:0.99977218;stroke-linecap:butt;stroke-linejoin:miter;stroke-opacity:1;stroke-miterlimit:4;stroke-dasharray:none"
         d="m 441.1824,35.99421 c -0.5625,6.3125 4.84255,8.57374 7.5,11.5 2.52596,2.78147 3.44867,5.98972 3.34548,8.9956 -0.0275,0.80257 -0.24543,4.28011 -2.61445,7.76672 3.16792,-8.74711 0.21847,-12.25806 -2.66296,-15.05158 -3.48994,-3.38346 -6.08612,-6.57218 -5.56807,-13.21074 z"
         inkscape:connector-curvature="0" />
    </g>
    <g
       id="g4814"
       transform="matrix(0.89020281,0,0,0.89020281,-156.86643,-43.676263)"
       style="opacity:0.768;fill:#ffffff;fill-opacity:1;stroke:#ffffff;stroke-width:0.99977219;stroke-miterlimit:4;stroke-dasharray:none;stroke-opacity:1">
      <path
         id="path4810"
         style="opacity:1;fill:#ffffff;fill-opacity:1;fill-rule:evenodd;stroke:#ffffff;stroke-width:0.99977219;stroke-miterlimit:4;stroke-dasharray:none;stroke-dashoffset:0;stroke-opacity:1"
         d="m 303.13715,299.65106 c -3.39584,1.81997 -5.20528,5.11455 -4.09222,7.59296 1.18726,2.64364 5.26701,3.38972 9.10658,1.66537 3.83956,-1.72436 5.99216,-5.2694 4.8049,-7.91303 -1.18727,-2.64364 -5.26701,-3.38972 -9.10658,-1.66537 -0.23997,0.10777 -0.48628,0.19874 -0.71268,0.32007 z"
         inkscape:connector-curvature="0" />
      <path
         id="path4812"
         style="fill:#ffffff;fill-opacity:1;fill-rule:evenodd;stroke:#ffffff;stroke-width:0.99977219;stroke-linecap:butt;stroke-linejoin:miter;stroke-miterlimit:4;stroke-dasharray:none;stroke-opacity:1"
         d="m 299.50465,305.98445 v 33.58757"
         inkscape:connector-curvature="0" />
    </g>
    <g
       id="g4822"
       transform="matrix(0.89020281,0,0,0.89020281,-286.50546,151.91113)"
       style="opacity:0.681;fill:#ffffff;fill-opacity:1;stroke-width:0.99977218;stroke-miterlimit:4;stroke-dasharray:none">
      <path
         id="path4816"
         style="opacity:1;fill:#ffffff;fill-opacity:1;fill-rule:evenodd;stroke:none;stroke-width:0.99977218;stroke-miterlimit:4;stroke-dashoffset:0;stroke-opacity:1;stroke-dasharray:none"
         d="m 431.56955,65.847427 c -3.39584,1.81997 -5.20528,5.11455 -4.09222,7.59296 1.18726,2.64364 5.26701,3.38972 9.10658,1.66537 3.83956,-1.72436 5.99216,-5.2694 4.8049,-7.91303 -1.18727,-2.64364 -5.26701,-3.38972 -9.10658,-1.66537 -0.23997,0.10777 -0.48628,0.19874 -0.71268,0.32007 z"
         inkscape:connector-curvature="0" />
      <path
         id="path4818"
         style="fill:#ffffff;fill-opacity:1;fill-rule:evenodd;stroke:#ffffff;stroke-width:0.99977218;stroke-linecap:butt;stroke-linejoin:miter;stroke-miterlimit:4;stroke-dasharray:none;stroke-opacity:1"
         d="M 441.18705,68.62194 V 35.03437"
         inkscape:connector-curvature="0" />
      <path
         id="path4820"
         style="fill:#ffffff;fill-opacity:1;fill-rule:evenodd;stroke:none;stroke-width:0.99977218;stroke-linecap:butt;stroke-linejoin:miter;stroke-opacity:1;stroke-miterlimit:4;stroke-dasharray:none"
         d="m 441.1824,35.99421 c -0.5625,6.3125 4.84255,8.57374 7.5,11.5 2.52596,2.78147 3.44867,5.98972 3.34548,8.9956 -0.0275,0.80257 -0.24543,4.28011 -2.61445,7.76672 3.16792,-8.74711 0.21847,-12.25806 -2.66296,-15.05158 -3.48994,-3.38346 -6.08612,-6.57218 -5.56807,-13.21074 z"
         inkscape:connector-curvature="0" />
    </g>
    <g
       style="fill:#ffffff;fill-opacity:1;stroke-width:0.99977218;stroke-miterlimit:4;stroke-dasharray:none"
       transform="matrix(0.89020281,0,0,0.89020281,-332.39961,151.91113)"
       id="g4830">
      <path
         inkscape:connector-curvature="0"
         d="m 431.56955,65.847427 c -3.39584,1.81997 -5.20528,5.11455 -4.09222,7.59296 1.18726,2.64364 5.26701,3.38972 9.10658,1.66537 3.83956,-1.72436 5.99216,-5.2694 4.8049,-7.91303 -1.18727,-2.64364 -5.26701,-3.38972 -9.10658,-1.66537 -0.23997,0.10777 -0.48628,0.19874 -0.71268,0.32007 z"
         style="opacity:1;fill:#ffffff;fill-opacity:1;fill-rule:evenodd;stroke:none;stroke-width:0.99977218;stroke-miterlimit:4;stroke-dashoffset:0;stroke-opacity:1;stroke-dasharray:none"
         id="path4824" />
      <path
         inkscape:connector-curvature="0"
         d="M 441.18705,68.62194 V 35.03437"
         style="fill:#ffffff;fill-opacity:1;fill-rule:evenodd;stroke:#ffffff;stroke-width:0.99977218;stroke-linecap:butt;stroke-linejoin:miter;stroke-miterlimit:4;stroke-dasharray:none;stroke-opacity:1"
         id="path4826" />
      <path
         inkscape:connector-curvature="0"
         d="m 441.1824,35.99421 c -0.5625,6.3125 4.84255,8.57374 7.5,11.5 2.52596,2.78147 3.44867,5.98972 3.34548,8.9956 -0.0275,0.80257 -0.24543,4.28011 -2.61445,7.76672 3.16792,-8.74711 0.21847,-12.25806 -2.66296,-15.05158 -3.48994,-3.38346 -6.08612,-6.57218 -5.56807,-13.21074 z"
         style="fill:#ffffff;fill-opacity:1;fill-rule:evenodd;stroke:none;stroke-width:0.99977218;stroke-linecap:butt;stroke-linejoin:miter;stroke-opacity:1;stroke-miterlimit:4;stroke-dasharray:none"
         id="path4828" />
    </g>
    <g
       style="opacity:0.33000004;fill:#ffffff;fill-opacity:1;stroke-width:0.99977219;stroke-miterlimit:4;stroke-dasharray:none"
       transform="matrix(0.89020281,0,0,0.89020281,-258.41253,151.91113)"
       id="g4838">
      <path
         inkscape:connector-curvature="0"
         d="m 431.56955,65.847427 c -3.39584,1.81997 -5.20528,5.11455 -4.09222,7.59296 1.18726,2.64364 5.26701,3.38972 9.10658,1.66537 3.83956,-1.72436 5.99216,-5.2694 4.8049,-7.91303 -1.18727,-2.64364 -5.26701,-3.38972 -9.10658,-1.66537 -0.23997,0.10777 -0.48628,0.19874 -0.71268,0.32007 z"
         style="opacity:1;fill:#ffffff;fill-opacity:1;fill-rule:evenodd;stroke:none;stroke-width:0.99977219;stroke-miterlimit:4;stroke-dasharray:none;stroke-dashoffset:0;stroke-opacity:1"
         id="path4832" />
      <path
         inkscape:connector-curvature="0"
         d="M 441.18705,68.62194 V 35.03437"
         style="fill:#ffffff;fill-opacity:1;fill-rule:evenodd;stroke:#ffffff;stroke-width:0.99977219;stroke-linecap:butt;stroke-linejoin:miter;stroke-miterlimit:4;stroke-dasharray:none;stroke-opacity:1"
         id="path4834" />
      <path
         inkscape:connector-curvature="0"
         d="m 441.1824,35.99421 c -0.5625,6.3125 4.84255,8.57374 7.5,11.5 2.52596,2.78147 3.44867,5.98972 3.34548,8.9956 -0.0275,0.80257 -0.24543,4.28011 -2.61445,7.76672 3.16792,-8.74711 0.21847,-12.25806 -2.66296,-15.05158 -3.48994,-3.38346 -6.08612,-6.57218 -5.56807,-13.21074 z"
         style="fill:#ffffff;fill-opacity:1;fill-rule:evenodd;stroke:none;stroke-width:0.99977219;stroke-linecap:butt;stroke-linejoin:miter;stroke-miterlimit:4;stroke-dasharray:none;stroke-opacity:1"
         id="path4836" />
    </g>
    <g
       style="opacity:0.27600002;fill:#ffffff;fill-opacity:1;stroke:#ffffff;stroke-width:0.99977219;stroke-miterlimit:4;stroke-dasharray:none;stroke-opacity:1"
       transform="matrix(0.89020281,0,0,0.89020281,-137.81631,-43.676263)"
       id="g4901">
      <path
         inkscape:connector-curvature="0"
         d="m 303.13715,299.65106 c -3.39584,1.81997 -5.20528,5.11455 -4.09222,7.59296 1.18726,2.64364 5.26701,3.38972 9.10658,1.66537 3.83956,-1.72436 5.99216,-5.2694 4.8049,-7.91303 -1.18727,-2.64364 -5.26701,-3.38972 -9.10658,-1.66537 -0.23997,0.10777 -0.48628,0.19874 -0.71268,0.32007 z"
         style="opacity:1;fill:#ffffff;fill-opacity:1;fill-rule:evenodd;stroke:#ffffff;stroke-width:0.99977219;stroke-miterlimit:4;stroke-dasharray:none;stroke-dashoffset:0;stroke-opacity:1"
         id="path4897" />
      <path
         inkscape:connector-curvature="0"
         d="m 299.50465,305.98445 v 33.58757"
         style="fill:#ffffff;fill-opacity:1;fill-rule:evenodd;stroke:#ffffff;stroke-width:0.99977219;stroke-linecap:butt;stroke-linejoin:miter;stroke-miterlimit:4;stroke-dasharray:none;stroke-opacity:1"
         id="path4899" />
    </g>
    <g
       id="g4909"
       transform="matrix(0.89020281,0,0,0.89020281,-252.06249,151.91113)"
       style="opacity:0.12000002;fill:#ffffff;fill-opacity:1;stroke-width:0.99977219;stroke-miterlimit:4;stroke-dasharray:none">
      <path
         id="path4903"
         style="opacity:1;fill:#ffffff;fill-opacity:1;fill-rule:evenodd;stroke:none;stroke-width:0.99977219;stroke-miterlimit:4;stroke-dasharray:none;stroke-dashoffset:0;stroke-opacity:1"
         d="m 431.56955,65.847427 c -3.39584,1.81997 -5.20528,5.11455 -4.09222,7.59296 1.18726,2.64364 5.26701,3.38972 9.10658,1.66537 3.83956,-1.72436 5.99216,-5.2694 4.8049,-7.91303 -1.18727,-2.64364 -5.26701,-3.38972 -9.10658,-1.66537 -0.23997,0.10777 -0.48628,0.19874 -0.71268,0.32007 z"
         inkscape:connector-curvature="0" />
      <path
         id="path4905"
         style="fill:#ffffff;fill-opacity:1;fill-rule:evenodd;stroke:#ffffff;stroke-width:0.99977219;stroke-linecap:butt;stroke-linejoin:miter;stroke-miterlimit:4;stroke-dasharray:none;stroke-opacity:1"
         d="M 441.18705,68.62194 V 35.03437"
         inkscape:connector-curvature="0" />
      <path
         id="path4907"
         style="fill:#ffffff;fill-opacity:1;fill-rule:evenodd;stroke:none;stroke-width:0.99977219;stroke-linecap:butt;stroke-linejoin:miter;stroke-miterlimit:4;stroke-dasharray:none;stroke-opacity:1"
         d="m 441.1824,35.99421 c -0.5625,6.3125 4.84255,8.57374 7.5,11.5 2.52596,2.78147 3.44867,5.98972 3.34548,8.9956 -0.0275,0.80257 -0.24543,4.28011 -2.61445,7.76672 3.16792,-8.74711 0.21847,-12.25806 -2.66296,-15.05158 -3.48994,-3.38346 -6.08612,-6.57218 -5.56807,-13.21074 z"
         inkscape:connector-curvature="0" />
    </g>
  </g>
</svg>
